<svg width="128" height="128" viewBox="0 0 128 128" xmlns="http://www.w3.org/2000/svg">
  <defs>
    <linearGradient id="bgGradient" x1="0%" y1="0%" x2="100%" y2="100%">
      <stop offset="0%" style="stop-color:#FF6B35;stop-opacity:1" />
      <stop offset="100%" style="stop-color:#F7931E;stop-opacity:1" />
    </linearGradient>
    <linearGradient id="iconGradient" x1="0%" y1="0%" x2="100%" y2="100%">
      <stop offset="0%" style="stop-color:#FFFFFF;stop-opacity:1" />
      <stop offset="100%" style="stop-color:#F0F0F0;stop-opacity:1" />
    </linearGradient>
  </defs>
  
  <!-- Background circle -->
  <circle cx="64" cy="64" r="60" fill="url(#bgGradient)" stroke="#D63031" stroke-width="2"/>
  
  <!-- TODO checklist icon -->
  <rect x="25" y="30" width="35" height="45" rx="4" ry="4" fill="url(#iconGradient)" stroke="#D63031" stroke-width="1.5"/>
  
  <!-- Checklist items -->
  <rect x="30" y="38" width="3" height="3" rx="1" fill="#FF6B35"/>
  <rect x="36" y="37" width="20" height="2" rx="1" fill="#666"/>
  <rect x="36" y="40" width="15" height="1.5" rx="0.75" fill="#999"/>
  
  <rect x="30" y="48" width="3" height="3" rx="1" fill="#FF6B35"/>
  <rect x="36" y="47" width="18" height="2" rx="1" fill="#666"/>
  <rect x="36" y="50" width="12" height="1.5" rx="0.75" fill="#999"/>
  
  <rect x="30" y="58" width="3" height="3" rx="1" fill="#FF6B35"/>
  <rect x="36" y="57" width="22" height="2" rx="1" fill="#666"/>
  <rect x="36" y="60" width="16" height="1.5" rx="0.75" fill="#999"/>
  
  <rect x="30" y="68" width="3" height="3" rx="1" fill="#FF6B35"/>
  <rect x="36" y="67" width="19" height="2" rx="1" fill="#666"/>
  
  <!-- Link/chain icon -->
  <ellipse cx="75" cy="55" rx="8" ry="6" fill="none" stroke="url(#iconGradient)" stroke-width="3" transform="rotate(45 75 55)"/>
  <ellipse cx="85" cy="65" rx="8" ry="6" fill="none" stroke="url(#iconGradient)" stroke-width="3" transform="rotate(45 85 65)"/>
  
  <!-- Arrow pointing to GitHub-style icon -->
  <path d="M 68 75 L 75 82 L 68 89" stroke="url(#iconGradient)" stroke-width="2.5" fill="none" stroke-linecap="round"/>
  
  <!-- GitHub-style issue icon -->
  <circle cx="95" cy="85" r="12" fill="url(#iconGradient)" stroke="#D63031" stroke-width="1.5"/>
  <circle cx="95" cy="82" r="2" fill="#FF6B35"/>
  <rect x="91" y="87" width="8" height="1.5" rx="0.75" fill="#FF6B35"/>
  <rect x="93" y="90" width="4" height="1" rx="0.5" fill="#FF6B35"/>
</svg>